<?xml version="1.0" encoding="UTF-8"?>
<svg width="679px" height="154px" viewBox="0 0 679 154" version="1.1" xmlns="http://www.w3.org/2000/svg" xmlns:xlink="http://www.w3.org/1999/xlink">
    <defs>
        <linearGradient x1="100%" y1="50%" x2="85.3294041%" y2="50%" id="linearGradient-1">
            <stop stop-color="#C7D2F4" offset="0%"></stop>
            <stop stop-color="#21369D" offset="100%"></stop>
        </linearGradient>
    </defs>
    <g id="Page-1" stroke="none" stroke-width="1" fill="none" fill-rule="evenodd">
        <g id="Artboard" transform="translate(-30, -33)">
            <g id="Group-3" transform="translate(30, 31)">
                <g id="Group-2" transform="translate(5, 0)">
                    <path d="M0,143 L12,138 L27,134 L39.9618153,129.425242 C42.6344754,128.48195 45.4480791,128 48.2823182,128 L69,128 L69,128 L85.8143266,129.681433 C87.8564733,129.885647 89.897398,129.282082 91.5,128 C93.1470372,126.68237 94.4885027,125.022995 95.4317821,123.136436 L100,114 L100,114 L105,100 L109,91 L113,86 L113.628292,84.9528471 C115.14249,82.429183 117.62701,80.6384421 120.5,80 C123.47876,79.3380533 126.547675,79.1820794 129.578198,79.5386115 L138.859382,80.6305155 C140.927721,80.8738495 143.024269,80.6585769 145,80 C146.987861,79.3373796 148.860344,78.3690812 150.550077,77.1299439 L163,68 L163,68 L169,63 C170.311891,62.5207464 172.645225,62.5207464 176,63 C179.354775,63.4792536 181.688109,64.1459203 183,65 L183,65 L188,72 L188,72 L191.316718,73.6583592 C193.081322,74.5406608 195.027114,75 197,75 C198.972886,75 200.918678,75.4593392 202.683282,76.3416408 L204,77 C206.630515,78.3152576 209.531131,79 212.472136,79 L219,79 L219,79 L228,72 L239,70 L242.434878,69.2366939 C245.95956,68.4534312 249.649916,69.2832677 252.5,71.5 C255.480505,73.8181708 258.067792,76.601688 260.162278,79.7434165 L263,84 L263,84 L266.715163,90.3688505 C268.873749,94.0692841 271.88575,97.2000224 275.5,99.5 C279.14284,101.818171 283.135584,103.533896 287.324555,104.581139 L293,106 L293,106 C298.90907,107.313127 304.404057,110.06062 309,114 L309,114 L309,114 L322,121 L337,126 L355.053466,129.139733 C358.347469,129.712603 361.599478,130.505098 364.787731,131.511915 L379,136 L379,136 L393,138 L403,134 L429,112 L439,103 L450,100 L464,98 L484,100 L492,100 L516,94 L527,96 L534,100 L542,103 L556,103 L582,103 L593,103 L599,106 L615,106 L646,106 L659,106 L667,104 L673,102" id="Path" stroke="url(#linearGradient-1)" stroke-width="2" stroke-linecap="round"></path>
                    <line x1="646.5" y1="58.5" x2="646" y2="118" id="Path-2" stroke="#000D4E" stroke-dasharray="5"></line>
                    <path d="M126.25,77.25 L125.870322,124.709793 C125.80405,132.993799 132.465839,139.763037 140.749846,139.829309 C140.763389,139.829418 140.776934,139.829508 140.790478,139.829579 L173,140 L173,140" id="Path-2-Copy" stroke="#000D4E" stroke-width="0.5"></path>
                    <path d="M270,20 L221.089022,20.1980202 C213.972512,20.2268319 208.201913,25.9723572 208.142112,33.0886738 L207.75,79.75 L207.75,79.75" id="Path-2-Copy-3" stroke="#000D4E" stroke-width="0.5"></path>
                    <path d="M363,50 L317.086357,50.1953772 C309.9709,50.2256557 304.201926,55.9707499 304.142134,63.0860197 L303.75,109.75 L303.75,109.75" id="Path-2-Copy-4" stroke="#000D4E" stroke-width="0.5"></path>
                    <path d="M163,39 L119.089601,39.1934379 C111.972866,39.2247891 106.204218,44.9727388 106.147285,52.0893151 L105.75,101.75 L105.75,101.75" id="Path-2-Copy-2" stroke="#000D4E" stroke-width="0.5"></path>
                    <text id="Brandeburgo" transform="translate(657, 52) rotate(-90) translate(-657, -52) " font-family="Karla" font-size="10" font-weight="normal" letter-spacing="0.357142857" fill="#000D4E">
                        <tspan x="625" y="56">Brandeburgo</tspan>
                    </text>
                    <text id="Tiergarten" font-family="Karla" font-size="12" fill="#000D4E">
                        <tspan x="103" y="33">Tiergarten</tspan>
                    </text>
                    <text id="Bellevue" font-family="Karla" font-size="12" fill="#000D4E">
                        <tspan x="123" y="155">Bellevue</tspan>
                    </text>
                    <text id="Frierichstr." font-family="Karla" font-size="12" fill="#000D4E">
                        <tspan x="206" y="12">Friedrichstr.</tspan>
                    </text>
                    <text id="Ostbanhof" font-family="Karla" font-size="12" fill="#000D4E">
                        <tspan x="301" y="42">Ostbahnhof</tspan>
                    </text>
                </g>
                <g id="Group" transform="translate(0, 60)" stroke-linejoin="round" stroke-width="1.5">
                    <rect id="Rectangle" stroke="#21369D" fill="#9DABEE" transform="translate(4, 83) rotate(-315) translate(-4, -83) " x="2" y="81" width="5" height="5"></rect>
                    <rect id="Rectangle-Copy" stroke="#21369D" fill="#21369E" transform="translate(46, 68.792893) rotate(-315) translate(-46, -68.792893) " x="44.5" y="66.7928932" width="4" height="4"></rect>
                    <rect id="Rectangle-Copy-2" stroke="#21369D" fill="#21369E" transform="translate(76, 68) rotate(-315) translate(-76, -68) " x="74" y="66" width="4" height="4"></rect>
                    <rect id="Rectangle-Copy-3" stroke="#21369D" fill="#21369E" transform="translate(102, 61) rotate(-315) translate(-102, -61) " x="100" y="59" width="4" height="4"></rect>
                    <rect id="Rectangle-Copy-4" stroke="#21369D" fill="#9DABEE" transform="translate(110, 39) rotate(-315) translate(-110, -39) " x="108" y="37" width="5" height="5"></rect>
                    <rect id="Rectangle-Copy-5" stroke="#21369D" fill="#9DABEE" transform="translate(131, 19) rotate(-315) translate(-131, -19) " x="129" y="17" width="5" height="5"></rect>
                    <rect id="Rectangle-Copy-6" stroke="#21369D" fill="#21369E" transform="translate(178, 3) rotate(-315) translate(-178, -3) " x="176" y="1" width="4" height="4"></rect>
                    <rect id="Rectangle-Copy-7" stroke="#21369D" fill="#9DABEE" transform="translate(212, 18) rotate(-315) translate(-212, -18) " x="210" y="16" width="5" height="5"></rect>
                    <rect id="Rectangle-Copy-8" stroke="#21369D" fill="#21369D" transform="translate(241.792893, 10) rotate(-315) translate(-241.792893, -10) " x="239.792893" y="8.5" width="4" height="4"></rect>
                    <rect id="Rectangle-Copy-9" stroke="#21369D" fill="#21369D" transform="translate(261.207107, 15) rotate(-315) translate(-261.207107, -15) " x="259.207107" y="13.5" width="4" height="4"></rect>
                    <rect id="Rectangle-Copy-10" stroke="#21369D" fill="#21369D" transform="translate(275.207107, 35) rotate(-315) translate(-275.207107, -35) " x="273.207107" y="33.5" width="4" height="4"></rect>
                    <rect id="Rectangle-Copy-11" stroke="#21369D" fill="#9DABEE" transform="translate(308, 50) rotate(-315) translate(-308, -50) " x="306" y="48" width="5" height="5"></rect>
                    <rect id="Rectangle-Copy-12" stroke="#21369D" fill="#21369D" transform="translate(337.207107, 64) rotate(-315) translate(-337.207107, -64) " x="335.207107" y="62.5" width="4" height="4"></rect>
                    <rect id="Rectangle-Copy-13" stroke="#21369D" fill="#21369D" transform="translate(375.792893, 73) rotate(-315) translate(-375.792893, -73) " x="373.792893" y="71.5" width="4" height="4"></rect>
                    <rect id="Rectangle-Copy-14" stroke="#21369D" fill="#21369D" transform="translate(406.792893, 74) rotate(-315) translate(-406.792893, -74) " x="404.792893" y="72.5" width="4" height="4"></rect>
                    <rect id="Rectangle-Copy-15" stroke="#21369D" fill="#21369D" transform="translate(435.792893, 50) rotate(-315) translate(-435.792893, -50) " x="433.792893" y="48.5" width="4" height="4"></rect>
                    <rect id="Rectangle-Copy-16" stroke="#21369D" fill="#21369D" transform="translate(478, 38.792893) rotate(-315) translate(-478, -38.792893) " x="476.5" y="36.7928932" width="4" height="4"></rect>
                    <rect id="Rectangle-Copy-17" stroke="#21369D" fill="#21369D" transform="translate(548, 43.207107) rotate(-315) translate(-548, -43.207107) " x="546.5" y="41.2071068" width="4" height="4"></rect>
                    <rect id="Rectangle-Copy-18" stroke="#21369D" fill="#21369D" transform="translate(587, 43.207107) rotate(-315) translate(-587, -43.207107) " x="585.5" y="41.2071068" width="4" height="4"></rect>
                    <rect id="Rectangle-Copy-19" stroke="#21369D" fill="#21369D" transform="translate(615.792893, 46) rotate(-315) translate(-615.792893, -46) " x="613.792893" y="44.5" width="4" height="4"></rect>
                    <rect id="Rectangle-Copy-20" stroke="#9DABEE" fill="#9DABEE" transform="translate(662, 46) rotate(-315) translate(-662, -46) " x="660" y="44" width="4" height="4"></rect>
                </g>
            </g>
        </g>
    </g>
</svg>
